<?xml version="1.0" standalone="no"?>
<!DOCTYPE svg PUBLIC "-//W3C//DTD SVG 20010904//EN"
 "http://www.w3.org/TR/2001/REC-SVG-20010904/DTD/svg10.dtd">
<svg version="1.0" xmlns="http://www.w3.org/2000/svg"
 width="198.000000pt" height="103.000000pt" viewBox="0 0 198.000000 103.000000"
 preserveAspectRatio="xMidYMid meet">
<metadata>
Created by potrace 1.16, written by Peter Selinger 2001-2019
</metadata>
<g transform="translate(0.000000,103.000000) scale(0.100000,-0.100000)"
fill="#000000" stroke="none">
<path d="M228 922 c-121 -104 -228 -244 -228 -299 0 -36 27 -81 82 -139 l50
-53 -33 -15 c-32 -14 -28 -14 89 -15 l122 -1 0 104 c0 99 -1 104 -22 110 -37
9 -45 7 -76 -19 l-30 -25 -21 26 c-43 55 -14 160 82 298 49 71 59 86 55 86 -2
0 -33 -26 -70 -58z"/>
<path d="M385 970 c5 -8 28 -42 52 -76 96 -138 125 -243 82 -298 l-21 -26 -30
25 c-31 26 -39 28 -75 19 -22 -6 -23 -11 -23 -110 l0 -104 123 1 c116 1 120 1
88 15 l-33 15 50 53 c54 57 82 103 82 136 0 54 -107 202 -208 286 -98 82 -97
81 -87 64z"/>
<path d="M150 326 c0 -8 16 -34 36 -58 40 -46 64 -95 64 -128 0 -21 33 -60 50
-60 6 0 10 50 10 130 l0 130 -80 0 c-62 0 -80 -3 -80 -14z"/>
<path d="M370 210 c0 -80 4 -130 10 -130 17 0 50 39 50 60 0 33 24 82 64 128
54 65 50 72 -44 72 l-80 0 0 -130z"/>
<path d="M600 185 l0 -105 25 0 c23 0 25 4 25 40 0 39 1 40 35 40 28 0 35 4
35 20 0 16 -7 20 -35 20 -28 0 -35 4 -35 20 0 17 7 20 40 20 36 0 40 3 40 25
0 24 -2 25 -65 25 l-65 0 0 -105z"/>
<path d="M800 233 c-60 -22 -77 -86 -35 -128 49 -50 135 -17 135 51 0 32 -28
74 -49 74 -5 0 -15 2 -23 4 -7 3 -20 2 -28 -1z"/>
<path d="M1104 230 c-28 -11 -54 -48 -54 -78 0 -32 43 -72 77 -72 16 0 39 8
52 17 23 16 23 17 5 23 -10 4 -27 2 -36 -4 -14 -8 -22 -7 -35 7 -16 16 -14 17
40 17 54 0 57 1 57 25 0 24 -31 65 -49 65 -5 0 -15 2 -23 4 -7 3 -23 1 -34 -4z"/>
<path d="M1800 125 c0 -63 4 -105 10 -105 6 0 10 20 10 45 l0 45 25 -16 c48
-32 99 4 97 69 -1 55 -53 83 -103 57 -13 -7 -19 -7 -19 0 0 5 -4 10 -10 10 -6
0 -10 -42 -10 -105z"/>
</g>
</svg>
