<svg width="179" height="43" viewBox="0 0 179 43" fill="none" xmlns="http://www.w3.org/2000/svg">
<path d="M0.792 34V33.64L1.44 33.424C1.92 33.256 2.244 33.028 2.412 32.74C2.58 32.452 2.664 32.068 2.664 31.588C2.688 30.148 2.7 28.696 2.7 27.232C2.7 25.768 2.7 24.304 2.7 22.84V21.4C2.7 19.96 2.7 18.52 2.7 17.08C2.7 15.616 2.688 14.164 2.664 12.724C2.664 12.244 2.592 11.86 2.448 11.572C2.328 11.284 2.04 11.056 1.584 10.888L0.792 10.6V10.24H18.216L18.468 16.216H18.108L16.056 12.436C15.816 11.98 15.54 11.62 15.228 11.356C14.916 11.092 14.484 10.96 13.932 10.96H8.136C8.112 12.664 8.1 14.404 8.1 16.18C8.1 17.956 8.1 19.72 8.1 21.472H11.844C12.396 21.472 12.804 21.352 13.068 21.112C13.332 20.872 13.584 20.524 13.824 20.068L14.58 18.7H14.94V25H14.58L13.788 23.632C13.548 23.2 13.296 22.852 13.032 22.588C12.792 22.324 12.396 22.192 11.844 22.192H8.1C8.1 23.872 8.1 25.48 8.1 27.016C8.1 28.528 8.112 30.016 8.136 31.48C8.136 32.416 8.592 33.028 9.504 33.316L10.584 33.64V34H0.792ZM24.671 34.54C22.847 34.54 21.263 34.168 19.919 33.424C18.575 32.656 17.531 31.576 16.787 30.184C16.067 28.792 15.707 27.16 15.707 25.288C15.707 23.416 16.091 21.796 16.859 20.428C17.651 19.06 18.719 18.004 20.063 17.26C21.431 16.516 22.967 16.144 24.671 16.144C26.375 16.144 27.899 16.516 29.243 17.26C30.587 17.98 31.643 19.024 32.411 20.392C33.203 21.76 33.599 23.392 33.599 25.288C33.599 27.184 33.227 28.828 32.483 30.22C31.763 31.588 30.731 32.656 29.387 33.424C28.067 34.168 26.495 34.54 24.671 34.54ZM24.671 33.82C25.511 33.82 26.183 33.58 26.687 33.1C27.191 32.62 27.551 31.768 27.767 30.544C28.007 29.32 28.127 27.592 28.127 25.36C28.127 23.104 28.007 21.364 27.767 20.14C27.551 18.916 27.191 18.064 26.687 17.584C26.183 17.104 25.511 16.864 24.671 16.864C23.831 16.864 23.147 17.104 22.619 17.584C22.115 18.064 21.743 18.916 21.503 20.14C21.287 21.364 21.179 23.104 21.179 25.36C21.179 27.592 21.287 29.32 21.503 30.544C21.743 31.768 22.115 32.62 22.619 33.1C23.147 33.58 23.831 33.82 24.671 33.82ZM32.4802 34V33.64L33.0202 33.496C33.5002 33.352 33.8242 33.136 33.9922 32.848C34.1842 32.56 34.2802 32.188 34.2802 31.732V20.464C34.2802 19.936 34.1842 19.552 33.9922 19.312C33.8242 19.048 33.5002 18.868 33.0202 18.772L32.4802 18.628V18.268L38.6722 16.18L39.0322 16.54L39.3562 19.636V19.924C39.6922 19.252 40.1242 18.64 40.6522 18.088C41.2042 17.512 41.8042 17.044 42.4522 16.684C43.1242 16.324 43.7842 16.144 44.4322 16.144C45.3442 16.144 46.0402 16.396 46.5202 16.9C47.0002 17.404 47.2402 18.04 47.2402 18.808C47.2402 19.624 47.0002 20.26 46.5202 20.716C46.0642 21.148 45.5122 21.364 44.8642 21.364C43.8562 21.364 42.9682 20.86 42.2002 19.852L42.1282 19.78C41.8882 19.444 41.6122 19.264 41.3002 19.24C40.9882 19.192 40.7002 19.336 40.4362 19.672C40.1962 19.888 39.9922 20.152 39.8242 20.464C39.6802 20.752 39.5362 21.088 39.3922 21.472V31.516C39.3922 32.476 39.8122 33.076 40.6522 33.316L41.8042 33.64V34H32.4802ZM54.1443 16.144C55.7043 16.144 57.0363 16.468 58.1403 17.116C59.2443 17.74 60.0843 18.604 60.6603 19.708C61.2603 20.788 61.5603 22.024 61.5603 23.416C61.5603 23.68 61.5483 23.956 61.5243 24.244C61.5003 24.508 61.4523 24.748 61.3803 24.964H50.6523C50.6763 27.556 51.1323 29.428 52.0203 30.58C52.9323 31.708 54.2763 32.272 56.0523 32.272C57.2523 32.272 58.2243 32.08 58.9683 31.696C59.7123 31.312 60.4083 30.748 61.0563 30.004L61.4163 30.328C60.6723 31.648 59.6763 32.68 58.4283 33.424C57.2043 34.168 55.7283 34.54 54.0003 34.54C52.2963 34.54 50.7843 34.18 49.4643 33.46C48.1443 32.716 47.1123 31.66 46.3683 30.292C45.6243 28.924 45.2523 27.292 45.2523 25.396C45.2523 23.428 45.6843 21.76 46.5483 20.392C47.4123 19 48.5163 17.944 49.8603 17.224C51.2283 16.504 52.6563 16.144 54.1443 16.144ZM54.0363 16.864C53.3403 16.864 52.7403 17.08 52.2363 17.512C51.7563 17.92 51.3723 18.664 51.0843 19.744C50.8203 20.8 50.6763 22.3 50.6523 24.244H56.8083C57.0483 21.628 56.9523 19.744 56.5203 18.592C56.0883 17.44 55.2603 16.864 54.0363 16.864ZM60.1914 34V33.64L61.1274 33.424C61.6794 33.304 62.1234 33.124 62.4594 32.884C62.8194 32.62 63.1554 32.26 63.4674 31.804L67.3554 26.224L62.4594 18.448C62.2194 18.088 62.0034 17.812 61.8114 17.62C61.6194 17.428 61.3194 17.284 60.9114 17.188L60.4074 17.044V16.684H69.5514V17.044L68.9394 17.188C68.0994 17.452 67.9314 17.98 68.4354 18.772L71.3874 23.344L74.5914 18.916C74.8554 18.508 74.9754 18.172 74.9514 17.908C74.9514 17.62 74.7234 17.416 74.2674 17.296L73.3674 17.044V16.684H78.6234V17.044L77.7594 17.26C77.2314 17.404 76.8234 17.596 76.5354 17.836C76.2474 18.052 75.9354 18.4 75.5994 18.88L71.8194 23.992L76.7514 31.66C77.3514 32.596 78.1554 33.196 79.1634 33.46L79.7394 33.64V34H69.8034V33.64L70.4154 33.496C70.8234 33.4 71.0754 33.208 71.1714 32.92C71.2914 32.608 71.2314 32.26 70.9914 31.876L67.8234 26.944L64.4034 31.912C64.1154 32.296 64.0194 32.632 64.1154 32.92C64.2354 33.184 64.4874 33.364 64.8714 33.46L65.5914 33.64V34H60.1914ZM78.2764 34V33.64L78.9964 33.352C79.4764 33.184 79.7884 32.956 79.9324 32.668C80.1004 32.38 80.1844 32.008 80.1844 31.552V12.724C80.1844 12.244 80.1004 11.86 79.9324 11.572C79.7884 11.284 79.4764 11.056 78.9964 10.888L78.2764 10.6V10.24H87.4204V10.6L86.8084 10.852C86.3524 11.02 86.0404 11.248 85.8724 11.536C85.7044 11.8 85.6204 12.172 85.6204 12.652V21.4H94.2244V12.652C94.2244 12.172 94.1404 11.8 93.9724 11.536C93.8284 11.248 93.5164 11.02 93.0364 10.852L92.3884 10.6V10.24H101.568V10.6L100.848 10.888C100.392 11.056 100.08 11.284 99.9124 11.572C99.7444 11.86 99.6604 12.244 99.6604 12.724V31.552C99.6604 32.008 99.7444 32.38 99.9124 32.668C100.08 32.956 100.392 33.184 100.848 33.352L101.568 33.64V34H92.3884V33.64L93.0364 33.424C93.5164 33.232 93.8284 33.004 93.9724 32.74C94.1404 32.452 94.2244 32.068 94.2244 31.588V22.12H85.6204V31.588C85.6204 32.476 86.0164 33.088 86.8084 33.424L87.4204 33.64V34H78.2764ZM105.786 34.54C104.85 34.54 103.986 34.36 103.194 34C102.426 33.64 101.814 33.064 101.358 32.272C100.926 31.456 100.722 30.388 100.746 29.068L100.854 19.816C100.854 19.264 100.758 18.868 100.566 18.628C100.374 18.388 100.074 18.22 99.666 18.124L99.234 17.98V17.62L105.678 16.36L106.038 16.72L105.858 21.832V30.508C105.858 31.276 106.074 31.84 106.506 32.2C106.962 32.56 107.526 32.74 108.198 32.74C108.87 32.74 109.47 32.644 109.998 32.452C110.526 32.26 111.054 31.972 111.582 31.588L111.726 19.852C111.726 19.3 111.642 18.916 111.474 18.7C111.306 18.46 110.994 18.292 110.538 18.196L110.178 18.088V17.728L116.478 16.36L116.838 16.72L116.73 21.832V31.588C116.73 32.116 116.802 32.524 116.946 32.812C117.09 33.1 117.402 33.34 117.882 33.532L118.242 33.64V34L111.942 34.36L111.618 32.236C110.826 32.884 109.962 33.436 109.026 33.892C108.114 34.324 107.034 34.54 105.786 34.54ZM116.75 42.28V41.92L117.182 41.776C118.07 41.536 118.514 40.96 118.514 40.048V20.464C118.514 19.936 118.418 19.54 118.226 19.276C118.058 19.012 117.734 18.832 117.254 18.736L116.75 18.628V18.268L122.87 16.18L123.23 16.54L123.554 17.656C124.346 17.176 125.222 16.804 126.182 16.54C127.166 16.276 128.174 16.144 129.206 16.144C131.27 16.144 132.902 16.936 134.102 18.52C135.326 20.08 135.938 22.324 135.938 25.252C135.938 28.132 135.266 30.4 133.922 32.056C132.602 33.712 130.73 34.54 128.306 34.54C126.41 34.54 124.814 34.264 123.518 33.712V39.94C123.518 40.9 123.95 41.5 124.814 41.74L125.498 41.92V42.28H116.75ZM126.578 33.496C127.778 33.496 128.726 32.872 129.422 31.624C130.142 30.376 130.502 28.3 130.502 25.396C130.502 22.492 130.166 20.464 129.494 19.312C128.822 18.136 127.85 17.548 126.578 17.548C125.69 17.548 124.706 17.836 123.626 18.412V32.92C124.538 33.304 125.522 33.496 126.578 33.496Z" fill="white"/>
<circle cx="159" cy="21" r="20" fill="#0392CE"/>
<path d="M150.608 16.1547L159 11.3094L167.392 16.1547V25.8453L159 30.6906L150.608 25.8453V16.1547Z" fill="#0392CE" stroke="white" stroke-width="4"/>
</svg>
